<svg xmlns="http://www.w3.org/2000/svg" width="26.169" height="23" viewBox="0 0 26.169 23"><defs><style>.a{fill:#444;}</style></defs><g transform="translate(0 -31)"><path class="a" d="M25.4,32.533H23.051v-.767a.767.767,0,0,0-1.533,0v.767h-4.6v-.767a.767.767,0,0,0-1.533,0v.767h-4.6v-.767a.767.767,0,1,0-1.533,0v.767h-4.6v-.767a.767.767,0,0,0-1.533,0v.767H.767A.767.767,0,0,0,0,33.3V53.233A.767.767,0,0,0,.767,54H25.4a.767.767,0,0,0,.767-.767V33.3A.767.767,0,0,0,25.4,32.533Zm-.767,19.933H1.533v-13.8h23.1Zm0-15.333H1.533V34.067H3.118v.767a.767.767,0,0,0,1.533,0v-.767h4.6v.767a.767.767,0,0,0,1.533,0v-.767h4.6v.767a.767.767,0,0,0,1.533,0v-.767h4.6v.767a.767.767,0,0,0,1.533,0v-.767h1.584Z"/><path class="a" d="M62.757,215.376a.767.767,0,0,0,1.084,0l3.067-3.067a.767.767,0,0,0-1.084-1.084L63.3,213.75l-.991-.991a.767.767,0,0,0-1.084,1.084Z" transform="translate(-57.882 -170.8)"/><path class="a" d="M62.757,335.376a.767.767,0,0,0,1.084,0l3.067-3.067a.767.767,0,0,0-1.084-1.084L63.3,333.75l-.991-.991a.767.767,0,0,0-1.084,1.084Z" transform="translate(-57.882 -284.667)"/><path class="a" d="M197.757,215.376a.767.767,0,0,0,1.084,0l3.067-3.067a.767.767,0,0,0-1.084-1.084L198.3,213.75l-.991-.991a.767.767,0,0,0-1.084,1.084Z" transform="translate(-185.982 -170.8)"/><path class="a" d="M332.757,215.376a.767.767,0,0,0,1.084,0l3.067-3.067a.767.767,0,1,0-1.084-1.084L333.3,213.75l-.991-.991a.767.767,0,0,0-1.084,1.084Z" transform="translate(-314.082 -170.8)"/><path class="a" d="M214.833,361h-3.067a.767.767,0,1,0,0,1.533h3.067a.767.767,0,0,0,0-1.533Z" transform="translate(-200.216 -313.133)"/><path class="a" d="M349.833,361h-3.067a.767.767,0,1,0,0,1.533h3.067a.767.767,0,1,0,0-1.533Z" transform="translate(-328.316 -313.133)"/></g></svg>