<svg xmlns="http://www.w3.org/2000/svg" width="106.665" height="39.975" viewBox="0 0 106.665 39.975"><defs><style>.a{fill:#707070;}</style></defs><path class="a" d="M31.655-13.91a16.715,16.715,0,0,0,4.225-1.983,8.381,8.381,0,0,1,2.8-1.4q.585,0,.585.748a1.783,1.783,0,0,1-.91,1.4,27.5,27.5,0,0,1-6.89,3.575,14.361,14.361,0,0,1-6.11,9.425A19.31,19.31,0,0,1,14.495.975,16.209,16.209,0,0,1,7.637-.39,11.259,11.259,0,0,1,3.12-3.9,14.757,14.757,0,0,1,0-12.8,30.81,30.81,0,0,1,1.852-23.757,21.6,21.6,0,0,1,6.7-31.622a22,22,0,0,1,6.468-4.517,17.081,17.081,0,0,1,7.052-1.56,10.506,10.506,0,0,1,6.565,2.308,6.633,6.633,0,0,1,2.99,5.3,2.065,2.065,0,0,1-.747,1.625,2.633,2.633,0,0,1-1.788.65q-1.5,0-2.08-2.08-1.43-5-6.825-5-4.55,0-8.807,5.655A21.631,21.631,0,0,0,5.265-15.86,14.568,14.568,0,0,0,8.548-6.37,10.183,10.183,0,0,0,16.77-2.34a10.366,10.366,0,0,0,6.76-2.275,10.1,10.1,0,0,0,3.575-5.85,20.593,20.593,0,0,1-3.965.325,7.359,7.359,0,0,1-4.062-1.1,3.423,3.423,0,0,1-1.723-3.023,3.94,3.94,0,0,1,1.983-3.283,8.689,8.689,0,0,1,5.037-1.365,10.082,10.082,0,0,1,5.167,1.235A4.077,4.077,0,0,1,31.655-13.91ZM24.18-16.7q-2.925,0-2.925,1.3a1.886,1.886,0,0,0,1.17,1.625,4.952,4.952,0,0,0,2.438.65q1.268,0,2.568-.13a3.538,3.538,0,0,0-1.04-2.5A3.1,3.1,0,0,0,24.18-16.7ZM40.56.325a9.207,9.207,0,0,1-2.632-.357,3.326,3.326,0,0,1-1.462-.682q-.65-.78-.65-8.092A163.554,163.554,0,0,1,37.44-28.665Q38.8-39,43.81-39a1.761,1.761,0,0,1,1.69,1.267,6.412,6.412,0,0,1,.52,2.438q0,8.45-5.135,18.915-.2,5.4-.195,9.393t.715,4q1.105-.065,3.055-2.763a40.469,40.469,0,0,0,3.868-6.922q1.917-4.225,2.34-4.225t.422.52q0,1.82-1.885,5.785Q44.07.325,40.56.325ZM44.395-34.71q0-2.08-.52-2.08-1.95,0-2.86,16.185Q44.395-29.51,44.395-34.71Zm5.2,2.925A2.425,2.425,0,0,1,50.83-33.8a4.055,4.055,0,0,1,2.21-.845q1.755,0,1.755,2.015a5.844,5.844,0,0,1-1.04,3.477A3.382,3.382,0,0,1,50.83-27.69Q49.595-27.69,49.595-31.785ZM51.48.325a6.04,6.04,0,0,1-3.835-1.04q-.455-.455-.455-3.25t.423-9.328q.422-6.533.747-7.052a12.254,12.254,0,0,1,2.015-1.95,4.862,4.862,0,0,1,2.632-1.43q.942,0,.942,2.47a16.962,16.962,0,0,1-.357,2.535,10.149,10.149,0,0,1-.812,2.73q-.845,2.145-.845,11.245,0,1.755.39,1.755,1.105-.065,3.055-2.763a40.469,40.469,0,0,0,3.868-6.922q1.918-4.225,2.34-4.225t.423.52q0,1.82-1.885,5.785Q54.99.325,51.48.325Zm25.61,0A5.431,5.431,0,0,1,73.645-.65q-.52-.52-.52-2.73t.195-5.785A28.755,28.755,0,0,1,69.745-2.08,5.533,5.533,0,0,1,65.162.325a5.792,5.792,0,0,1-4.68-2.405q-1.917-2.4-1.917-7.67a15.3,15.3,0,0,1,2.958-9.3,9.2,9.2,0,0,1,7.768-4.03,8.427,8.427,0,0,1,4.875,1.82q1.04-12.675,1.885-14.3a10.087,10.087,0,0,1,1.853-2.08A4.067,4.067,0,0,1,80.34-39q.975,0,.975,3.055a25.712,25.712,0,0,1-.65,6.175q-1.755,6.7-2.21,8.515a130.306,130.306,0,0,0-.91,16.51q0,1.755.39,1.755,1.17-.065,3.12-2.73a38.86,38.86,0,0,0,3.868-6.923Q86.84-16.9,87.262-16.9t.423.52q0,1.82-1.885,5.785Q80.665.325,77.09.325ZM68.9-20.735q-1.755,0-3.51,2.8a11.9,11.9,0,0,0-1.755,6.467,16.275,16.275,0,0,0,.943,6.012q.943,2.34,2.372,2.34,2.925,0,6.695-11.7.325-3.575.325-4.225A7.313,7.313,0,0,0,68.9-20.735ZM92.105.325A6.942,6.942,0,0,1,86.32-2.437,9.957,9.957,0,0,1,84.175-8.71q0-7.085,2.99-10.725a9.548,9.548,0,0,1,7.735-3.64,5.462,5.462,0,0,1,3.64,1.2,4.062,4.062,0,0,1,1.43,3.282,8.065,8.065,0,0,1-3.283,6.533A13.021,13.021,0,0,1,88.66-9.3a8.284,8.284,0,0,0,1.722,4.388A4.272,4.272,0,0,0,93.8-3.055a6.836,6.836,0,0,0,3.51-.91,10.009,10.009,0,0,0,2.86-2.6,37.936,37.936,0,0,0,4.68-8.125q.52-1.17.813-1.69t.65-.52q.358,0,.357.52,0,3.25-3.965,9.75Q98.41.325,92.105.325ZM88.66-10.855a10.065,10.065,0,0,0,5.622-2.47A6.482,6.482,0,0,0,96.07-18.07Q96.07-21,94.185-21q-2.275,0-3.835,3.153A16.853,16.853,0,0,0,88.66-10.855Z" transform="translate(0 39)"/></svg>