<svg xmlns="http://www.w3.org/2000/svg" width="28.79" height="30.987" viewBox="0 0 28.79 30.987"><defs><style>.a{fill:none;stroke:#444;stroke-width:2px;}</style></defs><g transform="translate(-236.334 114.988)"><g transform="translate(237.334 -113.994)"><path class="a" d="M11.426,28.985h0l-.019,0h-.021a.676.676,0,0,1-.635-.5l-2.573-8.35L.462,17.354a.715.715,0,0,1-.454-.613.737.737,0,0,1,.329-.7L25.779.1a.646.646,0,0,1,.338-.1.623.623,0,0,1,.381.13.752.752,0,0,1,.275.72L22.757,25.489a.728.728,0,0,1-.341.511.619.619,0,0,1-.317.088.636.636,0,0,1-.266-.059l-8.615-3.994L12.04,28.4a.691.691,0,0,1-.615.581ZM25.956.288a.609.609,0,0,0-.442.195L8.664,18.088a.73.73,0,0,0-.015.975c.219.245.572.277,2.871.483h.008l.866.078a.725.725,0,0,0,.132.964.611.611,0,0,0,.368.135h.011a.624.624,0,0,0,.512-.278L26.468,1.388A.736.736,0,0,0,26.376.46.611.611,0,0,0,25.956.288Z" transform="translate(0 0)"/></g></g></svg>