<svg xmlns="http://www.w3.org/2000/svg" width="28.703" height="26.094" viewBox="0 0 28.703 26.094"><defs><style>.a{fill:#444;}</style></defs><path class="a" d="M27.4,6.69H23.434l1.309-4.881a1.3,1.3,0,1,0-2.521-.676L20.734,6.69H11.468l1.309-4.881a1.3,1.3,0,1,0-2.519-.676L8.767,6.69H3.914a1.3,1.3,0,0,0,0,2.609H8.067l-2.1,7.828H1.3a1.3,1.3,0,1,0,0,2.609H5.268L3.96,24.618a1.3,1.3,0,1,0,2.518.676l1.491-5.557h9.266l-1.309,4.881a1.3,1.3,0,1,0,2.519.676l1.49-5.557h4.853a1.3,1.3,0,1,0,0-2.609H20.636l2.1-7.828H27.4a1.3,1.3,0,0,0,0-2.609ZM17.934,17.127H8.668l2.1-7.828h9.266Zm0,0" transform="translate(0 -0.166)"/></svg>