<svg xmlns="http://www.w3.org/2000/svg" xmlns:xlink="http://www.w3.org/1999/xlink" width="30.068" height="30.094" viewBox="0 0 30.068 30.094"><defs><style>.a{fill:url(#a);}</style><linearGradient id="a" x1="0.5" x2="0.5" y2="1" gradientUnits="objectBoundingBox"><stop offset="0" stop-color="#5c22ad"/><stop offset="1" stop-color="#5115a2"/></linearGradient></defs><g transform="translate(-0.208 0)"><g transform="translate(0.208 0)"><path class="a" d="M29.974,14.286l-2.149-2.149L16,.314a1.075,1.075,0,0,0-1.52,0L2.659,12.138.51,14.287a1.075,1.075,0,0,0,1.52,1.52l.314-.316V29.019a1.075,1.075,0,0,0,1.075,1.075H27.064a1.075,1.075,0,0,0,1.075-1.075V15.491l.315.315a1.075,1.075,0,0,0,1.52-1.52ZM18.466,27.944H12.017v-8.6h6.449Zm7.524,0H20.615V18.271A1.075,1.075,0,0,0,19.541,17.2h-8.6a1.075,1.075,0,0,0-1.075,1.075v9.673H4.493v-14.6L15.241,2.593,25.99,13.341Z" transform="translate(-0.208 0)"/></g></g></svg>