<svg xmlns="http://www.w3.org/2000/svg" xmlns:xlink="http://www.w3.org/1999/xlink" width="42.403" height="42.403" viewBox="0 0 42.403 42.403"><defs><style>.a{fill:url(#a);}</style><linearGradient id="a" x1="0.85" y1="0.15" x2="0.15" y2="0.85" gradientUnits="objectBoundingBox"><stop offset="0" stop-color="#7011ce"/><stop offset="1" stop-color="#9029d0"/></linearGradient></defs><g transform="translate(-15.771 -15.771)"><g transform="translate(15.771 15.771)"><path class="a" d="M42.273,21.071a15.9,15.9,0,0,0-15.9,15.9,10.6,10.6,0,0,0,21.2,0,7.067,7.067,0,0,0-14.134,0,3.534,3.534,0,0,0,7.068,0H36.972a3.533,3.533,0,1,1,7.067,0,7.067,7.067,0,0,1-14.134,0,10.6,10.6,0,0,1,21.2,0v0a14.134,14.134,0,0,1-28.269,0v0a19.424,19.424,0,0,1,23.488-19,21.188,21.188,0,1,0,11.848,19c0-.549-.041-1.087-.083-1.625A15.9,15.9,0,0,0,42.273,21.071Z" transform="translate(-15.771 -15.771)"/></g></g></svg>