<svg xmlns="http://www.w3.org/2000/svg" xmlns:xlink="http://www.w3.org/1999/xlink" width="64.655" height="61.744" viewBox="0 0 64.655 61.744"><defs><style>.a{fill:none;}.b{fill:#c8c8cc;}.c{fill:url(#a);}.d{fill:#fff;}</style><linearGradient id="a" y1="0.5" x2="1" y2="0.5" gradientUnits="objectBoundingBox"><stop offset="0" stop-color="#5c22ad"/><stop offset="1" stop-color="#5115a2"/></linearGradient></defs><g transform="translate(-195.238 -22.068)"><g transform="translate(-3213 -1391)"><g transform="translate(3428.126 1420.541)"><g transform="translate(3.617 0)"><rect class="a" width="41.15" height="44.728"/></g></g><g transform="translate(3410.654 1432.189)"><rect class="a" width="23.258" height="26.837"/></g><g transform="translate(3410.796 1469.826)"><g transform="translate(0 0)"><path class="b" d="M25.155,125.363a12.822,12.822,0,0,1-2.573-.267.895.895,0,1,1,.36-1.753,11.082,11.082,0,0,0,2.213.229h.011l.4-.007a.839.839,0,0,1,.929.861.9.9,0,0,1-.862.929l-.467.009Zm-6.41-1.712a.9.9,0,0,1-.411-.1,23.513,23.513,0,0,1-2.539-1.544.894.894,0,0,1,1.02-1.469,20.969,20.969,0,0,0,2.344,1.426.894.894,0,0,1-.413,1.687Z" transform="translate(-15.41 -120.377)"/></g></g><g transform="translate(3408.238 1434.566)"><rect class="a" width="19.68" height="19.68"/></g><g transform="translate(3426.317 1472.147)"><g transform="translate(0 0)"><path class="b" d="M61.088,127.726a.894.894,0,0,1-.351-1.718,13.092,13.092,0,0,0,1.5-.759.9.9,0,0,1,.909,1.542,14.929,14.929,0,0,1-1.7.864A.9.9,0,0,1,61.088,127.726Z" transform="translate(-60.193 -125.126)"/></g></g><g transform="translate(3432.122 1460.826)"><g transform="translate(0 0)"><path class="b" d="M72.374,104.29a.9.9,0,0,1-.717-1.431L77.024,95.7a.9.9,0,0,1,1.433,1.073l-5.367,7.156A.894.894,0,0,1,72.374,104.29Z" transform="translate(-71.479 -95.344)"/></g></g></g><g transform="translate(-10.792)"><g transform="translate(218.126 22.068)"><g transform="translate(0 0)"><path class="c" d="M43.622,52.571a1.169,1.169,0,0,1-1.106-.8l-4.473-13.42L24.624,33.88a1.164,1.164,0,0,1-.217-2.11L68.653,6.155a1.165,1.165,0,0,1,1.73,1.211L63.4,46.954a1.167,1.167,0,0,1-1.607.869L46.808,41.4,44.761,51.639a1.162,1.162,0,0,1-1.069.934A.345.345,0,0,0,43.622,52.571ZM27.812,32.488l11.52,3.84a1.158,1.158,0,0,1,.736.736l3.27,9.813,1.469-7.345a1.166,1.166,0,0,1,1.6-.841L61.36,45.1Z" transform="translate(-23.828 -5.999)"/></g></g><g transform="translate(232.047 22.422)"><g transform="translate(0)"><path class="d" d="M67.718,40.923a1.163,1.163,0,0,1-.948-1.84L81.881,17.929,61.553,38.254a1.164,1.164,0,0,1-1.646-1.646L90.18,6.334a1.165,1.165,0,0,1,1.772,1.5l-23.287,32.6A1.166,1.166,0,0,1,67.718,40.923Z" transform="translate(-59.567 -5.992)"/></g></g></g></g></svg>