<svg xmlns="http://www.w3.org/2000/svg" width="24.068" height="30.094" viewBox="0 0 24.068 30.094"><defs><style>.a{fill:#444;}</style></defs><g transform="translate(-48.886)"><g transform="translate(48.886)"><path class="a" d="M70.794,5.232a11.933,11.933,0,0,0-19.748,0,12.272,12.272,0,0,0-1.4,11.2,9.593,9.593,0,0,0,1.744,2.912l8.737,10.382a1.032,1.032,0,0,0,1.584,0l8.735-10.379a9.6,9.6,0,0,0,1.743-2.908A12.274,12.274,0,0,0,70.794,5.232ZM70.242,15.7a7.523,7.523,0,0,1-1.372,2.274l0,.006L60.92,27.419l-7.95-9.447a7.527,7.527,0,0,1-1.374-2.28,10.151,10.151,0,0,1,1.162-9.263,9.866,9.866,0,0,1,16.326,0A10.153,10.153,0,0,1,70.242,15.7Z" transform="translate(-48.886)"/></g><g transform="translate(56.612 7.324)"><path class="a" d="M160.062,106.219a4.308,4.308,0,1,0,4.308,4.308A4.313,4.313,0,0,0,160.062,106.219Zm0,7.077a2.769,2.769,0,1,1,2.769-2.769A2.772,2.772,0,0,1,160.062,113.3Z" transform="translate(-155.754 -106.219)"/></g></g></svg>