<svg xmlns="http://www.w3.org/2000/svg" width="33.581" height="33.581" viewBox="0 0 33.581 33.581"><defs><style>.a{fill:#444;}</style></defs><g transform="translate(0 0)"><path class="a" d="M16.79,33.581a3.677,3.677,0,0,1-3.673-3.673V28.839a12.472,12.472,0,0,1-2.249-.932l-.756.756a3.673,3.673,0,1,1-5.194-5.194l.756-.756a12.479,12.479,0,0,1-.932-2.249H3.673a3.673,3.673,0,0,1,0-7.346H4.742a12.472,12.472,0,0,1,.932-2.249l-.756-.756a3.673,3.673,0,1,1,5.194-5.194l.756.756a12.477,12.477,0,0,1,2.249-.932V3.673A3.674,3.674,0,0,1,16.79,0a3.724,3.724,0,0,1,.731.073,3.684,3.684,0,0,1,2.942,3.6V4.742a12.472,12.472,0,0,1,2.249.932l.756-.756a3.673,3.673,0,1,1,5.194,5.194l-.756.756a12.479,12.479,0,0,1,.932,2.249h1.069a3.673,3.673,0,0,1,0,7.346H28.839a12.472,12.472,0,0,1-.932,2.249l.756.756a3.673,3.673,0,0,1-5.194,5.194l-.756-.756a12.477,12.477,0,0,1-2.249.932v1.069a3.676,3.676,0,0,1-2.939,3.6h0a3.724,3.724,0,0,1-.731.073Zm.525-1.1h0ZM10.7,25.546a1.046,1.046,0,0,1,.554.159A10.4,10.4,0,0,0,14.4,27.012a1.049,1.049,0,0,1,.812,1.022v1.874a1.576,1.576,0,0,0,1.574,1.574,1.62,1.62,0,0,0,.316-.032,1.577,1.577,0,0,0,1.258-1.543V28.034a1.049,1.049,0,0,1,.812-1.022A10.4,10.4,0,0,0,22.331,25.7a1.049,1.049,0,0,1,1.3.149l1.326,1.326a1.574,1.574,0,0,0,2.226-2.226l-1.325-1.325a1.049,1.049,0,0,1-.149-1.3,10.4,10.4,0,0,0,1.307-3.154,1.049,1.049,0,0,1,1.022-.812h1.874a1.574,1.574,0,0,0,0-3.148H28.034a1.049,1.049,0,0,1-1.022-.812A10.4,10.4,0,0,0,25.7,11.25a1.049,1.049,0,0,1,.149-1.3l1.326-1.325A1.574,1.574,0,0,0,24.953,6.4L23.627,7.727a1.049,1.049,0,0,1-1.3.149,10.4,10.4,0,0,0-3.154-1.307,1.05,1.05,0,0,1-.812-1.022V3.673A1.578,1.578,0,0,0,17.106,2.13,1.617,1.617,0,0,0,16.79,2.1a1.575,1.575,0,0,0-1.574,1.574V5.547A1.049,1.049,0,0,1,14.4,6.569,10.4,10.4,0,0,0,11.25,7.876a1.049,1.049,0,0,1-1.3-.149L8.628,6.4A1.574,1.574,0,0,0,6.4,8.628L7.727,9.953a1.049,1.049,0,0,1,.149,1.3A10.4,10.4,0,0,0,6.569,14.4a1.049,1.049,0,0,1-1.022.812H3.673a1.574,1.574,0,0,0,0,3.148H5.547a1.049,1.049,0,0,1,1.022.812,10.4,10.4,0,0,0,1.307,3.154,1.049,1.049,0,0,1-.149,1.3L6.4,24.953a1.574,1.574,0,0,0,2.226,2.226l1.326-1.325a1.049,1.049,0,0,1,.742-.307Z"/><path class="a" d="M151.346,158.691a7.346,7.346,0,0,1,0-14.691c.209,0,.416.009.616.026a7.345,7.345,0,0,1-.005,14.639C151.762,158.683,151.554,158.691,151.346,158.691Zm0-12.593a5.247,5.247,0,0,0,0,10.494c.148,0,.294-.006.434-.018a5.247,5.247,0,0,0,.005-10.457C151.64,146.1,151.494,146.1,151.346,146.1Z" transform="translate(-134.555 -134.555)"/></g></svg>