<svg xmlns="http://www.w3.org/2000/svg" width="17.133" height="18.69" viewBox="0 0 17.133 18.69"><defs><style>.a{fill:#7c7c7c;}</style></defs><path class="a" d="M319.73,18.531A2.531,2.531,0,1,1,317.2,16,2.531,2.531,0,0,1,319.73,18.531Zm0,0" transform="translate(-303.181 -15.416)"/><path class="a" d="M301.783,6.23A3.115,3.115,0,1,1,304.9,3.115,3.118,3.118,0,0,1,301.783,6.23Zm0-5.062a1.947,1.947,0,1,0,1.947,1.947A1.949,1.949,0,0,0,301.783,1.168Zm0,0" transform="translate(-287.765)"/><path class="a" d="M319.73,359.863a2.531,2.531,0,1,1-2.531-2.531A2.531,2.531,0,0,1,319.73,359.863Zm0,0" transform="translate(-303.181 -344.288)"/><path class="a" d="M301.783,347.562a3.115,3.115,0,1,1,3.115-3.115A3.118,3.118,0,0,1,301.783,347.562Zm0-5.062a1.947,1.947,0,1,0,1.947,1.947A1.949,1.949,0,0,0,301.783,342.5Zm0,0" transform="translate(-287.765 -328.872)"/><path class="a" d="M21.062,189.2a2.531,2.531,0,1,1-2.531-2.531A2.531,2.531,0,0,1,21.062,189.2Zm0,0" transform="translate(-15.416 -179.854)"/><path class="a" d="M3.115,176.9a3.115,3.115,0,1,1,3.115-3.115A3.118,3.118,0,0,1,3.115,176.9Zm0-5.062a1.947,1.947,0,1,0,1.947,1.947A1.949,1.949,0,0,0,3.115,171.836Zm0,0" transform="translate(0 -164.438)"/><path class="a" d="M115.128,95.893a.779.779,0,0,1-.386-1.456l7.226-4.12a.779.779,0,1,1,.771,1.354l-7.226,4.12A.774.774,0,0,1,115.128,95.893Zm0,0" transform="translate(-110.174 -86.921)"/><path class="a" d="M122.375,271.9a.774.774,0,0,1-.385-.1l-7.226-4.12a.779.779,0,0,1,.771-1.354l7.226,4.12a.779.779,0,0,1-.386,1.456Zm0,0" transform="translate(-110.196 -256.501)"/></svg>